<svg xmlns="http://www.w3.org/2000/svg" viewBox="0 0 133.93 79.39" style="enable-background:new 0 0 133.93 79.39" xml:space="preserve"><g xmlns:xodm="http://www.corel.com/coreldraw/odm/2003"><linearGradient id="a" gradientUnits="userSpaceOnUse" x1="103.24" y1="-13.39" x2="103.24" y2="41.27"><stop offset="0" style="stop-color:#44d62c"/><stop offset=".24" style="stop-color:#30961f"/><stop offset=".51" style="stop-color:#1b5612"/><stop offset=".73" style="stop-color:#0d2708"/><stop offset=".9" style="stop-color:#030b02"/><stop offset="1" style="stop-color:#000"/></linearGradient><path d="M75.91 59s9.8-26.27 35.31-26.84c0 0-.25-14.51 10.94-19.5 0 0 1.24-6.22 8.4-8.56.01.01-40.72 8.54-54.65 54.9z" style="fill:url(#a)"/><linearGradient id="b" gradientUnits="userSpaceOnUse" x1="31.02" y1="-14.42" x2="31.02" y2="40.23"><stop offset="0" style="stop-color:#44d62c"/><stop offset=".28" style="stop-color:#2e921e"/><stop offset=".63" style="stop-color:#16440e"/><stop offset=".88" style="stop-color:#061304"/><stop offset="1" style="stop-color:#000"/></linearGradient><path d="M58.34 59s-9.8-26.27-35.31-26.84c0 0 .25-14.51-10.94-19.5 0 0-1.24-6.22-8.4-8.56 0 .01 40.73 8.54 54.65 54.9z" style="fill:url(#b)"/><linearGradient id="c" gradientUnits="userSpaceOnUse" x1="66.97" y1="5.25" x2="66.97" y2="52.79"><stop offset="0" style="stop-color:#44d62c"/><stop offset=".26" style="stop-color:#2d8f1d"/><stop offset=".52" style="stop-color:#1a5211"/><stop offset=".74" style="stop-color:#0c2508"/><stop offset=".9" style="stop-color:#030a02"/><stop offset="1" style="stop-color:#000"/></linearGradient><path d="M66.97 79.39S61.37 15.88 0 .06c0 0 32.19-2.18 58.45 18.91L61.7 6.06l3.25 5.12s.97-.21 1.87-.15a6.68 6.68 0 0 1 2.17.15l3.25-5.12 3.25 12.91C101.75-2.11 133.94.06 133.94.06 72.57 15.88 66.97 79.39 66.97 79.39z" style="fill:url(#c)"/></g><path d="m65.48 15.13-4.01-1.11 2.31 2.19zM69.87 13.65h.48v.37h.24a.5.5 0 0 1 .17.03c.13.06.34.2.34.55h-.5v-.11h-1v.64h1.01l.15.03c.12.06.32.2.33.47v.48c0 .12-.03.25-.09.36-.07.11-.17.23-.33.24h-.31v.37h-.5v-.37h-.31s-.43-.06-.44-.6h.5s-.02.14.11.15h.81s.11.03.1-.17v-.39s.02-.12-.12-.11h-.92s-.44 0-.47-.46v-.58c0-.11.03-.22.09-.31.08-.11.2-.23.37-.24h.3l-.01-.35z"/></svg>