<?xml version="1.0" standalone="no"?>
<!DOCTYPE svg PUBLIC "-//W3C//DTD SVG 20010904//EN"
 "http://www.w3.org/TR/2001/REC-SVG-20010904/DTD/svg10.dtd">
<svg version="1.0" xmlns="http://www.w3.org/2000/svg"
 width="1072.000000pt" height="1072.000000pt" viewBox="0 0 1072.000000 1072.000000"
 preserveAspectRatio="xMidYMid meet">
<metadata>
Created by potrace 1.14, written by Peter Selinger 2001-2017
</metadata>
<g transform="translate(0.000000,1072.000000) scale(0.100000,-0.100000)"
fill="#000000" stroke="none">
<path d="M40 8529 c14 -7 30 -13 35 -13 6 -1 30 -8 55 -15 25 -7 52 -14 60
-16 8 -2 42 -12 76 -23 33 -12 71 -23 85 -26 13 -2 41 -11 61 -20 21 -9 40
-16 43 -16 3 0 6 0 8 0 1 0 61 -21 132 -46 72 -24 135 -46 140 -48 6 -2 19 -7
30 -11 11 -4 61 -24 110 -43 104 -40 129 -50 208 -86 32 -14 60 -26 62 -26 36
0 780 -388 805 -420 3 -3 28 -19 55 -35 28 -15 77 -47 110 -69 33 -23 67 -45
76 -51 66 -40 363 -255 379 -274 3 -3 23 -20 45 -36 40 -30 68 -52 89 -70 6
-6 27 -23 46 -39 19 -16 66 -56 104 -90 248 -219 492 -466 666 -671 23 -27 54
-63 68 -80 15 -16 57 -68 94 -115 37 -47 71 -89 76 -95 4 -5 42 -55 82 -110
41 -55 78 -101 83 -103 4 -2 7 -9 7 -16 0 -7 9 -21 20 -31 11 -10 20 -24 20
-31 0 -7 4 -14 9 -16 7 -3 81 -112 195 -290 20 -31 36 -61 36 -67 0 -6 4 -11
8 -11 5 0 17 -17 29 -37 11 -21 45 -81 75 -133 30 -52 68 -117 83 -145 50 -89
200 -388 239 -475 21 -47 49 -107 62 -134 13 -28 24 -56 24 -63 0 -7 5 -13 12
-13 6 0 9 -3 6 -6 -3 -3 10 -42 29 -87 52 -123 71 -170 83 -202 64 -166 133
-359 146 -410 2 -5 10 -29 19 -53 13 -38 81 -254 91 -292 2 -8 8 -31 13 -50
65 -235 154 -622 177 -765 3 -21 8 -47 10 -59 2 -11 7 -41 10 -66 3 -25 8 -54
11 -64 3 -11 7 -38 9 -60 4 -48 11 -87 18 -93 3 -3 5 3 4 13 -1 28 11 122 22
179 5 28 12 70 15 95 4 24 8 47 10 50 1 3 6 28 9 55 4 28 9 58 12 67 5 17 10
42 19 90 4 23 16 79 40 184 3 11 14 56 25 100 22 83 27 104 35 144 3 14 9 36
14 50 8 22 20 64 27 97 1 7 9 34 17 60 133 423 166 517 279 803 77 195 96 239
174 408 19 40 34 77 34 82 0 6 5 10 12 10 6 0 9 2 6 5 -7 7 181 379 193 383 5
2 9 9 9 15 0 9 45 91 125 229 120 209 458 704 487 716 4 2 8 10 8 17 0 7 3 15
8 17 4 2 23 23 42 48 19 25 39 50 45 56 5 6 24 28 40 49 153 196 488 550 701
740 42 39 93 85 112 103 19 17 38 32 41 32 3 0 24 17 46 38 32 29 136 112 230
184 6 4 24 18 40 31 69 54 216 157 224 157 5 0 11 4 13 8 4 11 157 112 169
112 5 0 9 3 9 8 0 4 21 19 48 35 26 15 54 32 62 37 47 30 207 123 225 131 11
5 40 21 65 35 89 52 500 254 515 254 2 0 28 11 57 24 29 13 109 47 178 74 69
27 134 53 145 57 11 4 25 9 30 11 6 2 82 28 170 59 88 31 167 58 175 60 9 1
55 15 102 30 48 14 95 28 105 30 10 2 46 12 80 23 34 11 65 17 68 14 3 -3 5 1
5 8 0 10 -54 11 -282 6 -156 -3 -303 -8 -328 -10 -25 -2 -81 -7 -125 -10 -44
-3 -95 -8 -113 -10 -18 -3 -67 -8 -110 -11 -42 -4 -84 -9 -92 -10 -8 -1 -40
-6 -70 -10 -30 -4 -62 -9 -70 -10 -32 -6 -97 -15 -130 -20 -19 -2 -58 -9 -87
-14 -29 -6 -74 -13 -100 -17 -26 -3 -51 -8 -54 -10 -4 -2 -24 -6 -45 -10 -22
-3 -57 -10 -79 -16 -22 -5 -52 -12 -67 -13 -15 -2 -46 -9 -70 -16 -24 -6 -54
-13 -68 -16 -14 -2 -77 -18 -140 -35 -118 -30 -134 -34 -172 -43 -13 -3 -34
-9 -48 -14 -14 -5 -52 -17 -85 -26 -57 -17 -373 -120 -405 -132 -8 -4 -17 -7
-20 -8 -3 -1 -18 -7 -35 -14 -16 -6 -61 -23 -100 -38 -140 -52 -354 -147 -560
-248 -254 -124 -341 -173 -639 -358 -41 -25 -271 -181 -276 -186 -3 -3 -27
-22 -55 -40 -27 -19 -52 -37 -55 -40 -14 -16 -170 -131 -170 -126 0 3 -36 151
-81 328 -45 177 -82 329 -84 337 -2 8 -13 53 -25 100 -12 47 -23 90 -25 95
-10 45 -18 72 -22 85 -9 23 -10 28 -12 57 -1 24 -3 25 -15 13 -7 -8 -68 -101
-135 -207 -122 -191 -122 -191 -151 -183 -33 10 -261 7 -277 -3 -6 -4 -34 30
-64 78 -30 46 -90 140 -133 207 l-80 123 -7 -35 c-4 -19 -26 -107 -49 -195
-22 -88 -43 -171 -46 -185 -3 -14 -18 -76 -35 -139 -16 -62 -31 -123 -34 -135
-2 -11 -14 -55 -25 -96 -11 -41 -23 -84 -25 -95 -4 -23 -8 -40 -25 -108 l-12
-47 -42 33 c-22 19 -81 64 -131 101 -49 37 -98 73 -108 81 -9 8 -19 15 -22 15
-2 0 -28 18 -57 40 -29 22 -58 40 -65 40 -6 0 -13 4 -15 9 -4 11 -255 171
-268 171 -6 0 -10 5 -10 10 0 6 -6 10 -14 10 -8 0 -21 6 -28 13 -8 6 -29 20
-48 31 -19 10 -60 32 -90 49 -30 16 -68 38 -85 47 -181 107 -670 324 -960 425
-27 9 -57 20 -65 23 -8 3 -17 6 -20 7 -25 7 -208 67 -220 72 -8 3 -19 7 -25 8
-5 2 -30 8 -55 16 -25 7 -49 14 -55 15 -5 1 -35 10 -65 19 -30 9 -62 17 -70
19 -8 2 -35 9 -60 16 -25 7 -54 14 -65 16 -11 1 -20 3 -20 4 0 2 -20 7 -60 15
-16 3 -75 17 -130 30 -102 24 -208 45 -325 65 -36 6 -76 13 -90 16 -14 3 -43
7 -65 10 -21 2 -46 6 -55 8 -8 3 -40 8 -70 11 -30 3 -62 8 -71 11 -9 2 -40 7
-70 9 -59 5 -135 13 -189 20 -19 3 -71 7 -115 10 -44 4 -100 8 -125 11 -25 2
-178 7 -340 9 -228 4 -289 3 -270 -6z"/>
<path d="M355 8190 c3 -5 8 -10 11 -10 2 0 4 5 4 10 0 6 -5 10 -11 10 -5 0 -7
-4 -4 -10z"/>
<path d="M10320 8179 c-36 -10 -78 -24 -95 -30 -16 -5 -37 -12 -45 -14 -67
-16 -382 -135 -501 -188 -30 -13 -79 -35 -109 -48 -60 -26 -373 -183 -430
-216 -19 -11 -62 -35 -95 -53 -88 -49 -434 -266 -445 -279 -3 -4 -18 -15 -35
-25 -24 -15 -135 -97 -190 -138 -5 -5 -35 -27 -65 -50 -30 -24 -60 -47 -66
-53 -6 -5 -29 -23 -50 -40 -164 -129 -501 -444 -646 -606 -13 -14 -45 -50 -73
-81 -65 -71 -91 -102 -140 -163 -22 -27 -47 -57 -55 -66 -18 -19 -34 -40 -75
-94 -16 -22 -34 -45 -40 -51 -5 -6 -28 -37 -50 -69 -22 -31 -47 -65 -55 -74
-8 -9 -37 -50 -65 -91 -27 -41 -53 -79 -57 -85 -20 -25 -78 -118 -78 -124 0
-4 -8 -16 -17 -27 -17 -19 -24 -31 -55 -86 -7 -13 -18 -30 -24 -38 -6 -8 -22
-35 -35 -60 -13 -25 -28 -52 -35 -60 -40 -53 -231 -435 -322 -645 -16 -38 -38
-88 -48 -110 -9 -22 -18 -44 -19 -50 0 -5 -8 -26 -17 -45 -18 -41 -31 -73 -32
-80 -1 -3 -14 -38 -30 -78 -15 -39 -29 -78 -30 -85 -1 -6 -4 -16 -7 -22 -4 -5
-16 -41 -28 -80 -13 -38 -25 -77 -28 -85 -4 -8 -7 -17 -7 -20 -1 -3 -4 -9 -7
-15 -13 -21 -20 -67 -9 -60 5 3 10 10 10 15 0 15 79 176 142 289 32 58 58 106
58 108 0 3 11 19 25 37 14 18 25 36 25 40 0 5 10 22 23 39 12 17 27 39 32 48
31 49 55 85 63 95 5 6 27 35 48 65 188 265 466 554 734 762 8 7 62 44 120 83
193 131 385 232 566 299 55 21 108 41 119 46 11 4 38 13 60 19 119 33 192 52
205 55 154 32 194 38 295 50 17 2 82 7 145 10 63 4 116 8 117 9 2 1 5 38 8 82
10 141 20 221 41 319 9 39 17 78 19 87 12 56 52 184 80 257 39 101 153 326
172 340 5 3 17 20 27 36 46 72 175 211 246 264 19 14 37 29 40 32 12 14 135
89 147 89 7 0 13 4 13 9 0 5 20 17 44 27 34 14 46 25 50 46 7 38 73 186 87
198 3 3 14 20 23 38 35 68 182 227 239 258 15 8 27 19 27 24 0 6 6 10 14 10 8
0 21 7 29 15 13 13 101 59 177 93 38 17 12 13 -60 -9z"/>
<path d="M380 8186 c0 -7 80 -46 95 -46 8 0 15 -4 15 -8 0 -5 18 -17 40 -28
22 -10 40 -22 40 -26 0 -5 4 -8 10 -8 13 0 62 -42 146 -127 105 -106 183 -232
228 -369 14 -44 22 -53 64 -73 54 -26 162 -90 178 -106 6 -5 26 -21 45 -35 37
-27 168 -156 209 -205 70 -84 200 -301 200 -335 0 -5 5 -10 10 -10 6 0 10 -5
10 -12 0 -6 12 -40 26 -76 14 -35 27 -72 29 -81 2 -9 9 -32 16 -51 25 -73 21
-58 47 -175 30 -131 48 -271 55 -410 2 -38 3 -40 37 -41 88 -3 313 -27 385
-41 17 -3 41 -7 55 -9 14 -1 25 -3 25 -4 0 -2 9 -4 20 -6 27 -4 50 -9 120 -29
33 -9 76 -20 95 -25 46 -12 206 -70 299 -109 80 -34 305 -149 349 -179 15 -11
54 -37 87 -58 76 -48 186 -129 220 -161 8 -7 16 -13 19 -13 3 0 14 -8 24 -17
10 -10 49 -45 87 -78 86 -75 223 -211 295 -293 30 -35 68 -78 83 -95 59 -66
255 -336 314 -432 119 -195 275 -489 265 -500 -3 -3 0 -5 6 -5 15 0 17 -9 -18
90 -17 47 -31 87 -31 90 -4 13 -9 30 -29 85 -12 33 -23 65 -24 70 -2 6 -7 21
-13 35 -6 14 -20 52 -32 85 -13 33 -28 74 -36 90 -7 17 -32 75 -55 130 -106
252 -360 749 -411 805 -8 8 -14 17 -13 20 2 12 -242 386 -277 423 -10 11 -19
24 -19 28 0 3 -19 31 -42 61 -24 31 -54 70 -68 88 -26 35 -97 123 -165 206
-22 27 -52 61 -66 76 -14 14 -41 45 -60 69 -46 57 -395 408 -489 491 -41 36
-109 94 -150 128 -41 35 -89 74 -106 89 -17 14 -46 37 -64 51 -18 14 -58 44
-89 67 -31 23 -60 46 -66 50 -90 72 -430 295 -569 372 -243 137 -365 201 -382
201 -8 0 -14 3 -14 8 0 4 -15 14 -32 21 -32 14 -182 82 -223 101 -18 8 -71 30
-85 35 -3 1 -18 7 -35 15 -69 29 -359 137 -390 144 -5 2 -28 8 -50 14 -22 6
-44 12 -50 13 -5 0 -17 4 -25 9 -20 10 -70 22 -70 16z"/>
<path d="M4636 3887 c3 -10 9 -15 12 -12 3 3 0 11 -7 18 -10 9 -11 8 -5 -6z"/>
</g>
</svg>
